HIERARCHY
ROOT Hips
{
	OFFSET 0.000000 0.000000 0.000000
	CHANNELS 6 Xposition Yposition Zposition Xrotation Yrotation Zrotation
	JOINT LeftUpLeg_virtual
	{
		OFFSET 0.000000 0.000000 0.000000
		CHANNELS 3 Xrotation Yrotation Zrotation
		JOINT LeftUpLeg
		{
			OFFSET 13.026900 -6.336304 -1.092800
			CHANNELS 3 Xrotation Yrotation Zrotation
			JOINT LeftLeg
			{
				OFFSET 0.524474 -46.096886 9.782700
				CHANNELS 3 Xrotation Yrotation Zrotation
				JOINT LeftFoot
				{
					OFFSET -0.524474 -53.427422 -12.948200
					CHANNELS 3 Xrotation Yrotation Zrotation
					JOINT LeftToeBase
					{
						OFFSET 0.192200 -14.009700 16.364100
						CHANNELS 3 Xrotation Yrotation Zrotation
						JOINT LeftToe_End
						{
							OFFSET -1.784700 -0.561700 9.474800
							CHANNELS 3 Xrotation Yrotation Zrotation
							End Site
							{
								OFFSET 0 0 0
							}
						}
					}
				}
			}
		}
	}
	JOINT RightUpLeg_virtual
	{
		OFFSET 0.000000 0.000000 0.000000
		CHANNELS 3 Xrotation Yrotation Zrotation
		JOINT RightUpLeg
		{
			OFFSET -12.883000 -6.336304 -1.092800
			CHANNELS 3 Xrotation Yrotation Zrotation
			JOINT RightLeg
			{
				OFFSET -0.524587 -46.096825 9.782800
				CHANNELS 3 Xrotation Yrotation Zrotation
				JOINT RightFoot
				{
					OFFSET 0.524587 -53.427383 -12.948300
					CHANNELS 3 Xrotation Yrotation Zrotation
					JOINT RightToeBase
					{
						OFFSET -0.192200 -14.009700 16.364100
						CHANNELS 3 Xrotation Yrotation Zrotation
						JOINT RightToe_End
						{
							OFFSET 1.784700 -0.561700 9.474800
							CHANNELS 3 Xrotation Yrotation Zrotation
							End Site
							{
								OFFSET 0 0 0
							}
						}
					}
				}
			}
		}
	}
	JOINT Spine_virtual
	{
		OFFSET 0.000000 0.000000 0.000000
		CHANNELS 3 Xrotation Yrotation Zrotation
		JOINT Spine
		{
			OFFSET 0.072000 7.257294 -0.789700
			CHANNELS 3 Xrotation Yrotation Zrotation
			JOINT Spine1
			{
				OFFSET 0.000000 12.508769 -0.658067
				CHANNELS 3 Xrotation Yrotation Zrotation
				JOINT Spine1_split
				{
					OFFSET 0.000000 12.508769 -0.658067
					CHANNELS 3 Xrotation Yrotation Zrotation
					JOINT Spine2
					{
						OFFSET 0.000000 12.508769 -0.658067
						CHANNELS 3 Xrotation Yrotation Zrotation
						JOINT Neck_virtual
						{
							OFFSET 0.000000 0.000000 0.000000
							CHANNELS 3 Xrotation Yrotation Zrotation
							JOINT Neck
							{
								OFFSET 0.000000 14.033295 7.520400
								CHANNELS 3 Xrotation Yrotation Zrotation
								JOINT Head
								{
									OFFSET 0.000000 8.198502 5.703100
									CHANNELS 3 Xrotation Yrotation Zrotation
									JOINT HeadTop_End
									{
										OFFSET 0.000000 17.760803 13.332701
										CHANNELS 3 Xrotation Yrotation Zrotation
										End Site
										{
											OFFSET 0 0 0
										}
									}
								}
							}
						}
						JOINT LeftShoulder_virtual
						{
							OFFSET 0.000000 0.000000 0.000000
							CHANNELS 3 Xrotation Yrotation Zrotation
							JOINT LeftShoulder
							{
								OFFSET 6.292450 5.785301 -0.669000
								CHANNELS 3 Xrotation Yrotation Zrotation
								JOINT LeftShoulder_split
								{
									OFFSET 6.292450 5.785301 -0.669000
									CHANNELS 3 Xrotation Yrotation Zrotation
									JOINT LeftArm
									{
										OFFSET 13.907140 -6.093903 1.965100
										CHANNELS 3 Xrotation Yrotation Zrotation
										JOINT LeftForeArm
										{
											OFFSET 34.140198 0.000000 0.000000
											CHANNELS 3 Xrotation Yrotation Zrotation
											JOINT LeftHand
											{
												OFFSET 40.960209 0.000000 0.000000
												CHANNELS 3 Xrotation Yrotation Zrotation
												End Site
												{
													OFFSET 0 0 0
												}
											}
										}
									}
								}
							}
						}
						JOINT RightShoulder_virtual
						{
							OFFSET 0.000000 0.000000 0.000000
							CHANNELS 3 Xrotation Yrotation Zrotation
							JOINT RightShoulder
							{
								OFFSET -6.292450 5.785301 -0.669000
								CHANNELS 3 Xrotation Yrotation Zrotation
								JOINT RightShoulder_split
								{
									OFFSET -6.292450 5.785301 -0.669000
									CHANNELS 3 Xrotation Yrotation Zrotation
									JOINT RightArm
									{
										OFFSET -13.907140 -6.093903 1.965100
										CHANNELS 3 Xrotation Yrotation Zrotation
										JOINT RightForeArm
										{
											OFFSET -34.140198 0.000000 0.000000
											CHANNELS 3 Xrotation Yrotation Zrotation
											JOINT RightHand
											{
												OFFSET -40.960209 0.000000 0.000000
												CHANNELS 3 Xrotation Yrotation Zrotation
												End Site
												{
													OFFSET 0 0 0
												}
											}
										}
									}
								}
							}
						}
					}
				}
			}
		}
	}
}
MOTION
Frames: 8
Frame Time: 0.03333333
-3.707731 98.414680 -0.576805 0.000000 0.000000 0.000000 -8.353828 -63.334247 -3.781782 -22.825364 7.742811 27.535298 37.275785 -6.032955 -6.032933 -11.778810 -7.346083 -9.612563 -3.369079 -0.142825 0.071230 0.000000 0.000000 0.000000 -10.945392 -57.992930 -3.561041 -20.208891 -14.177895 -23.349943 39.545006 2.964807 -8.504195 -14.861959 5.709110 17.281360 -10.602026 1.386393 0.319732 0.000000 0.000000 0.000000 -9.964594 -61.979117 -4.230538 9.993739 -1.326238 -0.731747 5.005968 -0.151422 -5.088907 1.639320 -10.475442 2.190462 0.000000 0.000000 0.000000 6.710584 0.353147 -4.362402 8.834535 21.595340 10.507910 12.964420 28.549627 -18.548012 0.000000 0.000000 0.000000 5.214954 -0.101250 -3.714179 -9.562230 -7.505838 -6.757697 0.730810 -3.741974 -2.065540 -18.731770 23.177342 -25.029122 11.912846 -44.374062 4.037243 0.000000 0.000000 0.000000 3.082867 -0.948666 -4.162746 -9.850441 2.356488 7.261482 -3.903127 1.631022 3.446522 -45.523457 -17.317953 42.587575 175.960276 64.923858 -160.952889 0.000000 0.000000 0.000000 
-4.309002 99.216721 1.152157 0.000000 0.000000 0.000000 -9.205053 -62.565257 -4.380300 -21.753563 8.475309 26.843011 36.576462 -6.259474 -5.639279 -11.526549 -7.443530 -8.921466 -3.340563 -0.136046 0.266907 0.000000 0.000000 0.000000 -12.001949 -57.482039 -4.383929 -19.453070 -13.969360 -23.679253 39.199852 2.967968 -8.322269 -14.020957 5.691456 20.135556 -12.992549 1.464294 -0.178973 0.000000 0.000000 0.000000 -11.957610 -61.493033 -5.518743 9.408778 -1.719746 -0.153553 4.636098 -0.337658 -4.491383 0.301311 -9.354148 1.796934 0.000000 0.000000 0.000000 5.702786 0.147369 -3.829384 10.011138 21.019981 10.666782 12.816590 27.735001 -17.468246 0.000000 0.000000 0.000000 4.659401 -0.300698 -3.411769 -9.388345 -7.651712 -7.979695 1.320429 -3.252816 -3.363615 -18.894204 21.624862 -27.358850 14.183186 -47.816146 6.129745 0.000000 0.000000 0.000000 2.951606 -1.022504 -3.714076 -10.016421 1.343569 8.745743 -3.259209 0.867156 2.185113 -41.781404 -16.013491 38.901838 173.322716 66.084546 -157.762043 0.000000 0.000000 0.000000 
-5.310788 100.818863 3.088295 0.000000 0.000000 0.000000 -10.453889 -60.170832 -5.196344 -19.264663 9.071718 24.395820 34.221307 -5.805084 -4.511466 -11.086318 -6.545594 -8.692941 -3.245051 0.026287 0.320404 0.000000 0.000000 0.000000 -12.794745 -55.390116 -5.129759 -16.461232 -15.248759 -23.942308 36.887758 1.800399 -7.896305 -13.670186 5.107260 21.410357 -12.166692 1.700738 -0.901272 0.000000 0.000000 0.000000 -13.242599 -59.738931 -6.451798 8.187794 -2.263081 0.834509 3.714232 -0.658774 -2.985744 -0.334965 -7.050125 1.296697 0.000000 0.000000 0.000000 3.938623 -0.200076 -2.302716 10.401796 19.509706 11.434154 13.864487 24.848134 -16.518893 0.000000 0.000000 0.000000 3.446064 -0.523337 -2.047744 -9.308054 -7.051532 -9.876611 1.084859 -2.081132 -4.595792 -16.786580 18.928795 -30.752172 18.837356 -53.487198 10.020285 0.000000 0.000000 0.000000 2.068652 -1.240466 -2.336413 -9.668627 0.040636 10.759712 -2.984315 1.902880 1.142502 -37.901194 -19.760267 29.358223 -175.272940 60.512737 -167.815098 0.000000 0.000000 0.000000 
-6.449186 102.701607 5.048977 0.000000 0.000000 0.000000 -11.990426 -56.984576 -6.117096 -15.701430 9.118163 20.518073 30.925184 -4.909283 -2.773440 -10.801604 -4.813865 -9.039746 -3.274301 0.332307 0.165419 0.000000 0.000000 0.000000 -13.187846 -52.093351 -5.500462 -11.947439 -17.721843 -24.115859 33.627344 -0.551738 -7.336797 -12.992167 3.947429 20.957433 -9.645557 1.981367 -1.448420 0.000000 0.000000 0.000000 -13.933657 -56.779830 -7.049368 6.752468 -2.781957 1.934168 2.439886 -0.918899 -0.943696 -0.168441 -4.672427 0.871617 0.000000 0.000000 0.000000 1.748196 -0.521405 -0.185991 9.373022 17.432535 12.905787 15.615382 20.671547 -15.896137 0.000000 0.000000 0.000000 1.745268 -0.660818 0.025303 -9.333419 -5.839435 -11.859255 0.526184 -0.453557 -5.098436 -12.787028 15.873378 -33.703637 26.377615 -59.804795 16.340809 0.000000 0.000000 0.000000 0.576106 -1.497097 -0.394956 -8.882300 -1.201308 12.955447 -2.512954 4.282156 0.751026 -35.749091 -28.596399 16.847415 -162.787122 49.815268 -178.454743 0.000000 0.000000 0.000000 
-7.676434 104.527672 7.467236 0.000000 0.000000 0.000000 -13.550507 -53.383570 -6.835355 -11.838108 8.284121 15.782383 27.759769 -4.065703 -0.588300 -10.694309 -2.786061 -10.035984 -3.645734 0.758471 -0.187295 0.000000 0.000000 0.000000 -13.363496 -48.108741 -5.524578 -6.722178 -20.518206 -24.123217 30.272064 -3.258215 -6.866334 -11.219327 2.506288 19.777716 -8.836813 2.102785 -1.242907 0.000000 0.000000 0.000000 -14.306587 -52.952503 -7.336923 5.437727 -3.062257 2.864826 1.004743 -1.040171 1.238709 -0.094315 -2.877743 0.553731 0.000000 0.000000 0.000000 -0.473789 -0.710700 2.009771 6.350873 15.029302 14.900066 17.310215 16.240831 -15.793071 0.000000 0.000000 0.000000 -0.158834 -0.659175 2.320666 -9.442240 -4.428255 -13.392125 0.354450 0.659740 -5.275958 -7.998093 13.073429 -35.135060 36.508399 -64.879079 25.091470 0.000000 0.000000 0.000000 -1.300670 -1.635131 1.707286 -7.964883 -2.212621 15.184935 -1.400784 8.018706 0.699708 -38.751314 -39.855093 3.149474 -153.501016 38.698957 174.323913 0.000000 0.000000 0.000000 
-8.567768 105.995979 9.845982 0.000000 0.000000 0.000000 -14.987778 -49.836834 -7.217855 -8.720562 6.265019 11.043603 26.013037 -3.678363 1.762852 -10.562060 -1.100341 -11.530316 -4.367308 1.239688 -0.633319 0.000000 0.000000 0.000000 -13.725101 -44.188069 -5.415126 -1.507466 -22.648359 -23.931823 27.282405 -5.546450 -6.788088 -7.978838 1.230978 18.810044 -11.274538 1.845388 0.141224 0.000000 0.000000 0.000000 -14.603522 -48.670449 -7.368108 4.460756 -3.009931 3.432643 -0.420692 -0.958303 3.108608 -0.417437 -2.264911 0.373859 0.000000 0.000000 0.000000 -2.288545 -0.651423 3.875611 1.153050 12.566886 16.947123 18.316875 12.722348 -16.647382 0.000000 0.000000 0.000000 -1.886541 -0.531558 4.363770 -9.640849 -3.372498 -14.263922 0.856205 1.569550 -5.014558 -3.807086 11.146282 -34.695906 45.731815 -66.733209 32.851393 0.000000 0.000000 0.000000 -3.231727 -1.585098 3.620156 -7.153413 -2.808658 17.344598 -1.405736 10.751682 1.545404 -47.782378 -50.277313 -10.169864 -145.381328 31.449852 168.095491 0.000000 0.000000 0.000000 
-8.851905 107.172302 12.173344 0.000000 0.000000 0.000000 -16.184782 -46.424406 -7.290372 -6.773709 3.461818 6.817808 26.181356 -3.621248 3.922206 -10.204038 0.059677 -12.830215 -5.140793 1.744416 -1.113238 0.000000 0.000000 0.000000 -14.142755 -40.375980 -5.096625 3.518830 -23.374617 -23.393864 24.732163 -7.160188 -7.244619 -3.562237 0.230813 17.866376 -15.614287 0.899203 2.811514 0.000000 0.000000 0.000000 -14.896002 -44.253537 -7.126947 3.859202 -2.685751 3.613343 -1.595702 -0.690725 4.455914 -0.641985 -2.582602 0.326773 0.000000 0.000000 0.000000 -3.504618 -0.393928 5.210346 -5.702859 10.271750 18.876792 18.782972 10.847537 -18.621531 0.000000 0.000000 0.000000 -3.174987 -0.312110 5.834293 -9.912484 -2.934381 -14.404884 1.631508 2.054254 -4.005944 -1.207849 10.014562 -32.828147 49.770530 -65.147738 35.363584 0.000000 0.000000 0.000000 -4.774824 -1.343674 5.019702 -6.542017 -2.924100 19.178179 -2.999617 10.794381 2.503417 -61.552449 -57.609886 -21.961252 -136.191062 29.204629 160.281153 0.000000 0.000000 0.000000 
-8.571916 108.099274 14.817085 0.000000 0.000000 0.000000 -16.776142 -43.111888 -6.985186 -6.052497 0.515342 3.325280 27.754907 -3.616598 5.646382 -9.604386 0.725012 -13.348847 -5.754074 2.247643 -1.576668 0.000000 0.000000 0.000000 -14.502652 -36.818145 -4.662999 7.829293 -22.551565 -22.675135 22.927599 -8.078603 -8.035031 1.452932 -0.671062 16.882131 -20.178611 -0.927776 6.440367 0.000000 0.000000 0.000000 -15.051403 -40.309236 -6.689517 3.513285 -2.235494 3.503733 -2.354106 -0.442586 5.234950 -0.249988 -3.233516 0.660463 0.000000 0.000000 0.000000 -4.069635 -0.118686 5.971270 -13.402356 8.321423 20.428440 18.883943 10.975301 -21.493664 0.000000 0.000000 0.000000 -3.801241 -0.125322 6.595818 -10.150190 -3.183055 -13.950515 2.309067 2.381965 -2.930103 -1.131601 8.826122 -30.506087 47.207839 -60.034310 31.211048 0.000000 0.000000 0.000000 -5.608453 -0.977245 5.857483 -6.358896 -2.494146 20.486051 -3.803814 9.758052 2.652796 -75.386792 -60.713046 -28.418821 -124.123675 31.041393 148.588402 0.000000 0.000000 0.000000 
